<?xml version="1.0" standalone="no"?>
<!DOCTYPE svg PUBLIC "-//W3C//DTD SVG 20010904//EN"
 "http://www.w3.org/TR/2001/REC-SVG-20010904/DTD/svg10.dtd">
<svg version="1.0" xmlns="http://www.w3.org/2000/svg"
 width="192.000000pt" height="192.000000pt" viewBox="0 0 192.000000 192.000000"
 preserveAspectRatio="xMidYMid meet">
<g transform="translate(0.000000,192.000000) scale(0.100000,-0.100000)"
fill="white" stroke="none">
<path d="M735 1903 c-141 -36 -304 -116 -388 -193 -131 -117 -196 -199 -253
-320 -78 -163 -94 -238 -94 -430 0 -192 16 -267 94 -430 57 -121 122 -203 253
-320 87 -79 249 -158 395 -194 92 -22 344 -22 436 0 146 36 308 115 395 194
131 117 196 199 253 320 78 163 94 238 94 430 0 192 -16 267 -94 430 -57 121
-122 203 -253 320 -87 79 -249 158 -395 194 -88 21 -357 21 -443 -1z m184
-348 c16 -14 33 -35 37 -47 6 -19 11 -20 78 -15 61 6 308 54 373 73 19 5 22 1
29 -41 8 -58 -2 -148 -21 -185 -54 -104 -208 -166 -352 -140 -35 6 -75 15 -90
21 -14 5 -28 7 -31 5 -3 -3 -15 -57 -27 -120 l-21 -115 52 -7 c48 -6 69 -2
187 32 15 5 17 -3 17 -61 0 -83 -19 -118 -78 -146 -37 -18 -57 -21 -127 -17
-60 3 -86 1 -89 -8 -2 -6 -8 -49 -12 -94 l-7 -82 179 5 c157 4 189 8 258 30
44 14 84 23 89 20 5 -3 7 -40 5 -82 -3 -60 -11 -88 -33 -128 -59 -110 -138
-131 -334 -93 -119 23 -150 22 -216 -4 -56 -22 -150 -20 -203 4 -36 16 -47 29
-69 77 -24 52 -27 70 -26 163 0 96 35 336 87 608 l14 73 -43 89 c-33 66 -41
91 -32 98 27 22 161 84 210 97 29 7 78 14 109 14 46 1 62 -3 87 -24z"/>
</g>
</svg>
